HIERARCHY
ROOT Hips
{
  OFFSET 3.13124 94.3669 -3.18751
  CHANNELS  6 Xposition Yposition Zposition Zrotation Xrotation Yrotation
  JOINT LeftUpLeg
  {
    OFFSET 8.64259 1.95398 -2.38835
    CHANNELS 3 Zrotation Xrotation Yrotation
    JOINT LeftLeg
    {
      OFFSET 43.7702 0 0
      CHANNELS 3 Zrotation Xrotation Yrotation
      JOINT LeftFoot
      {
        OFFSET 40.6238 0 0
        CHANNELS 3 Zrotation Xrotation Yrotation
        JOINT LeftToeBase
        {
          OFFSET 12.7242 0 0
          CHANNELS 3 Zrotation Xrotation Yrotation
          End Site
          {
            OFFSET 0 0 0
          }
        }
      }
    }
  }
  JOINT RightUpLeg
  {
    OFFSET -8.2249 1.95398 -2.59336
    CHANNELS 3 Zrotation Xrotation Yrotation
    JOINT RightLeg
    {
      OFFSET 43.5653 0 0
      CHANNELS 3 Zrotation Xrotation Yrotation
      JOINT RightFoot
      {
        OFFSET 40.6238 0 0
        CHANNELS 3 Zrotation Xrotation Yrotation
        JOINT RightToeBase
        {
          OFFSET 12.7242 0 0
          CHANNELS 3 Zrotation Xrotation Yrotation
          End Site
          {
            OFFSET 0 0 0
          }
        }
      }
    }
  }
  JOINT Spine
  {
    OFFSET 0.165834 0.87714 6.61349
    CHANNELS 3 Zrotation Xrotation Yrotation
    JOINT Spine1
    {
      OFFSET 7.38962 1.71661e-005 0
      CHANNELS 3 Zrotation Xrotation Yrotation
      JOINT Spine2
      {
        OFFSET 11.9445 1.14441e-005 0
        CHANNELS 3 Zrotation Xrotation Yrotation
        JOINT Spine3
        {
          OFFSET 14.7254 4.19617e-005 0
          CHANNELS 3 Zrotation Xrotation Yrotation
          JOINT Spine4
          {
            OFFSET 10.9679 0 0
            CHANNELS 3 Zrotation Xrotation Yrotation
            JOINT RightShoulder
            {
              OFFSET 2.46616 -1.6653 3.69651
              CHANNELS 3 Zrotation Xrotation Yrotation
              JOINT RightArm
              {
                OFFSET 13.0012 0 0
                CHANNELS 3 Zrotation Xrotation Yrotation
                JOINT RightForeArm
                {
                  OFFSET 28.7848 1.52588e-005 0
                  CHANNELS 3 Zrotation Xrotation Yrotation
                  JOINT RightHand
                  {
                    OFFSET 26.5688 1.52588e-005 0
                    CHANNELS 3 Zrotation Xrotation Yrotation
                    End Site
                    {
                      OFFSET 0 0 0
                    }
                  }
                }
              }
            }
            JOINT LeftShoulder
            {
              OFFSET 2.38034 -1.29275 -3.75231
              CHANNELS 3 Zrotation Xrotation Yrotation
              JOINT LeftArm
              {
                OFFSET 16.3182 6.10352e-005 0
                CHANNELS 3 Zrotation Xrotation Yrotation
                JOINT LeftForeArm
                {
                  OFFSET 27.0901 0 0
                  CHANNELS 3 Zrotation Xrotation Yrotation
                  JOINT LeftHand
                  {
                    OFFSET 24.5451 1.52588e-005 0
                    CHANNELS 3 Zrotation Xrotation Yrotation
                    End Site
                    {
                      OFFSET 0 0 0
                    }
                  }
                }
              }
            }
            JOINT Neck
            {
              OFFSET 5.0226 -0.0266342 0
              CHANNELS 3 Zrotation Xrotation Yrotation
              JOINT Head
              {
                OFFSET 6.69363 2.86102e-005 0
                CHANNELS 3 Zrotation Xrotation Yrotation
                End Site
                {
                  OFFSET 0 0 0
                }
              }
            }
          }
        }
      }
    }
  }
}
MOTION
Frames:	16
Frame Time:	0.0333333
-115.146 88.8433 -108.22 67.3611 -50.4755 68.9045 177.783 62.3999 84.0233 -65.0302 14.6941 16.1321 0.22769 0.908083 -2.30064 28.7808 5.63953e-006 1.10137e-005 173.414 54.0147 95.2254 -39.5958 4.02467 -2.35255 40.8987 -0.546449 0.385081 28.7808 1.31426e-005 2.58097e-005 -0.875674 16.3154 -88.4167 -5.75717 0.366086 1.00542 -17.4285 0.409991 0.988332 -39.9605 0.0470202 1.06897 -19.9479 0.047017 1.06895 89.0479 -14.9649 -116.608 22.4087 14.4301 -49.4951 -3.72067 -0.279413 -121.625 -5.37983 -0.320016 -0.0162394 -86.3103 -13.5527 75.0089 -14.3363 -13.2359 -74.1612 -15.3301 -11.2928 -57.6357 -47.9369 11.3398 -31.1829 28.4473 -1.16112 -11.5504 -20.8748 0.471009 17.5653 
-115.088 88.5232 -108.618 66.2609 -50.6865 68.1445 177.511 63.6883 84.567 -64.6441 12.7567 15.6303 -1.8292 0.408802 -3.41709 28.7808 5.63953e-006 1.10137e-005 173.498 55.1218 95.4555 -40.0972 3.96595 -2.35086 40.9835 -0.786966 0.170842 28.7808 1.31426e-005 2.58097e-005 -0.89311 16.307 -88.3679 -5.73944 0.474741 1.0551 -17.4107 0.520737 1.03317 -39.9425 0.135714 1.14898 -19.9299 0.135723 1.14898 89.3286 -14.7764 -116.036 22.7373 15.2535 -49.7957 -3.7192 -0.280133 -121.324 -5.37983 -0.320016 -0.0162394 -86.6043 -13.209 74.1143 -17.9553 -15.2951 -74.1993 -16.7198 -13.2083 -58.8869 -51.2629 12.3931 -31.4196 25.7757 -1.22954 -11.9864 -19.6442 0.447678 17.7651 
-114.978 88.1826 -108.924 65.4853 -50.863 67.6182 177.622 64.6768 84.8253 -65.7345 13.5126 15.3492 -0.940095 0.629306 -2.90954 28.7808 5.63953e-006 1.10137e-005 173.573 55.9404 95.5507 -40.667 4.29761 -2.32331 41.9379 -0.22246 0.628209 28.7808 1.31426e-005 2.58097e-005 -0.884201 16.3123 -88.3406 -5.74937 0.548566 1.09018 -17.4207 0.596044 1.06499 -39.9523 0.19559 1.20461 -19.9397 0.195592 1.20463 89.6118 -14.5475 -115.479 23.0706 16.0715 -50.114 -3.71738 -0.281003 -120.95 -5.37983 -0.320016 -0.0162394 -86.7951 -12.7204 73.4031 -21.8779 -17.07 -74.5385 -16.9682 -14.3953 -59.8153 -54.7934 13.7693 -32.1045 22.7151 -1.32121 -12.3917 -18.04 0.400714 17.8971 
-114.838 87.8565 -109.203 65.2653 -51.0568 67.5532 177.662 65.4618 85.1351 -66.0893 13.0801 14.8753 -2.08029 0.396524 -3.45391 28.7808 5.63953e-006 1.10137e-005 173.592 56.5684 95.6151 -41.4465 4.70612 -2.25695 42.3582 -0.224186 0.61156 28.7808 1.31426e-005 2.58097e-005 -0.864911 16.3494 -88.3595 -5.82296 0.578257 1.11441 -17.4942 0.626744 1.08789 -40.0258 0.216626 1.23666 -20.0131 0.216623 1.23667 89.8158 -14.3202 -115.115 23.4374 16.9489 -50.4749 -3.71483 -0.282186 -120.433 -5.37983 -0.320016 -0.0162394 -86.9059 -12.307 72.9213 -23.7877 -18.359 -74.5673 -21.5087 -16.4871 -62.68 -55.7485 12.8841 -29.8577 19.2558 -1.03481 -12.5291 -16.2652 0.625397 17.8342 
-114.721 87.4892 -109.423 65.0294 -51.2702 67.6078 177.611 66.2387 85.6148 -66.6673 12.7756 14.5781 -2.811 0.224205 -3.85567 28.7808 5.63953e-006 1.10137e-005 173.609 57.132 95.8294 -42.2667 5.01188 -2.17943 43.2046 0.21825 0.953658 28.7808 1.31426e-005 2.58097e-005 -0.849589 16.3832 -88.3594 -5.88977 0.631825 1.147 -17.5611 0.681678 1.11807 -40.0925 0.257927 1.28385 -20.0798 0.257919 1.28383 89.9952 -14.1558 -114.769 23.8196 17.8623 -50.9405 -3.71141 -0.283717 -119.743 -5.37983 -0.320016 -0.0162394 -86.8322 -11.848 72.8857 -25.2533 -19.152 -74.8284 -23.4109 -16.9377 -64.1702 -55.9886 13.4786 -30.8616 15.6157 -0.702961 -12.8548 -14.216 0.974651 17.663 
-114.616 87.1287 -109.556 64.8849 -51.3898 67.8123 177.526 66.9083 86.0146 -67.6136 13.279 14.555 -2.85884 0.163659 -3.96919 28.7808 5.63953e-006 1.10137e-005 173.636 57.5569 96.0094 -43.0316 5.80464 -1.96162 44.4609 0.804473 1.38198 28.7808 1.31426e-005 2.58097e-005 -0.842368 16.4126 -88.3606 -5.94809 0.666769 1.16861 -17.6194 0.717545 1.13812 -40.1506 0.284751 1.31494 -20.138 0.284739 1.31494 90.1761 -13.8813 -114.489 24.2333 18.8231 -51.3881 -3.7074 -0.285476 -118.929 -5.37983 -0.320016 -0.0162394 -86.6834 -11.4305 73.0663 -26.612 -19.6743 -75.2372 -25.2817 -17.3268 -65.3021 -55.9351 14.1148 -32.0997 12.256 -0.314905 -13.1321 -12.6089 1.32464 17.3083 
-114.471 86.8278 -109.695 64.9872 -51.5916 68.0472 177.217 67.2372 86.1659 -68.2729 13.1316 14.7499 -3.08794 0.0220855 -4.25457 28.7808 5.63953e-006 1.10137e-005 173.582 58.0333 96.2239 -43.9715 5.69228 -1.9625 44.328 0.290019 0.969617 28.7808 1.31426e-005 2.58097e-005 -0.812267 16.4588 -88.3708 -6.04085 0.658973 1.23149 -17.7122 0.712564 1.2013 -40.243 0.258534 1.37261 -20.2303 0.258537 1.3726 90.3463 -13.6483 -114.205 24.6079 19.6979 -51.8884 -3.70273 -0.287435 -118 -5.37983 -0.320016 -0.0162394 -86.5143 -11.1651 73.378 -27.7202 -19.9773 -75.7704 -27.0709 -17.6343 -66.1341 -55.594 14.7962 -33.5954 8.74878 0.0251505 -13.7324 -10.6984 1.66646 17.4284 
-114.339 86.4927 -109.69 64.7026 -51.5148 68.0998 176.566 67.8752 86.5605 -68.9034 12.617 15.0213 -3.39201 -0.124855 -4.5477 28.7808 5.63953e-006 1.10137e-005 173.648 58.5942 96.3539 -44.8638 6.31017 -1.87178 45.6102 0.946356 1.44482 28.7808 1.31426e-005 2.58097e-005 -0.795561 16.463 -88.4042 -6.04862 0.653248 1.24755 -17.72 0.708202 1.21741 -40.2507 0.252044 1.38739 -20.2381 0.252051 1.3874 90.5448 -13.3451 -113.892 25.0066 20.6064 -52.3095 -3.69763 -0.289474 -116.988 -5.37983 -0.320016 -0.0162394 -86.3416 -10.8205 73.6644 -28.8612 -20.155 -76.3349 -28.7405 -17.9818 -66.6651 -55.1919 15.5562 -35.294 5.64291 0.370829 -13.8667 -9.49578 1.89467 16.6675 
-114.282 86.3145 -109.823 64.9549 -51.6029 68.4067 176.579 68.1549 86.8237 -68.7744 12.1607 14.5587 -4.82885 -0.105247 -4.70366 28.7808 5.63953e-006 1.10137e-005 173.652 58.9022 96.5075 -45.4683 6.10455 -1.96899 44.9647 0.317552 0.966564 28.7808 1.31426e-005 2.58097e-005 -0.768214 16.5071 -88.428 -6.13696 0.651602 1.29166 -17.8083 0.707798 1.26175 -40.3386 0.233273 1.42772 -20.326 0.233261 1.42774 90.7887 -12.8775 -113.563 25.4275 21.5475 -52.5676 -3.69271 -0.291313 -116.014 -5.37983 -0.320016 -0.0162394 -86.2019 -10.4626 73.8604 -29.7998 -20.2984 -76.8544 -30.4818 -18.2565 -67.1685 -54.5278 16.276 -37.1118 3.14596 0.644296 -13.9545 -8.82085 2.02385 15.9022 
-114.142 86.0531 -109.788 64.9614 -51.6587 68.4939 175.969 68.3294 86.7811 -69.8491 12.8594 15.4495 -4.17787 -0.514702 -5.40513 28.7808 5.63953e-006 1.10137e-005 173.727 59.2858 96.6117 -46.3129 6.33331 -2.0642 45.5835 0.555496 1.135 28.7808 1.31426e-005 2.58097e-005 -0.712847 16.5306 -88.4613 -6.18378 0.660635 1.33581 -17.8552 0.718787 1.30545 -40.3851 0.228667 1.47256 -20.3725 0.228667 1.47258 91.0426 -12.4473 -113.177 25.8064 22.4086 -52.8475 -3.68721 -0.293303 -114.94 -5.37983 -0.320016 -0.0162394 -86.0318 -10.5148 74.3402 -30.4846 -20.0724 -77.7877 -32.2336 -18.5437 -67.5601 -53.8289 16.9199 -38.8444 0.591049 0.95978 -13.7693 -8.24882 2.13515 14.9129 
-114.154 85.9052 -109.863 64.936 -51.7088 68.5137 176.181 68.7382 87.0881 -69.6943 12.5555 14.6576 -5.24599 -0.127909 -4.78026 28.7808 5.63953e-006 1.10137e-005 173.861 59.5387 96.6731 -46.6196 6.65323 -2.14182 45.721 0.771357 1.29618 28.7808 1.31426e-005 2.58097e-005 -0.701025 16.5445 -88.4552 -6.21139 0.690708 1.37783 -17.8828 0.750676 1.34611 -40.4124 0.244734 1.52168 -20.3998 0.244737 1.52168 91.3646 -11.8501 -112.71 26.1788 23.2554 -53.0254 -3.68126 -0.295288 -113.782 -5.37983 -0.320016 -0.0162394 -85.9099 -10.1624 74.4975 -31.3852 -20.1852 -78.4631 -34.2386 -18.9167 -68.0558 -53.1437 17.5155 -40.5101 -2.23062 1.2469 -13.4575 -7.52161 2.18103 14.124 
-114.126 85.7377 -109.897 65.0007 -51.8381 68.6115 175.633 68.8247 87.2322 -70.0571 12.2685 15.2213 -5.31889 -0.599341 -5.74841 28.7808 5.63953e-006 1.10137e-005 173.946 59.6687 96.7441 -46.9967 6.7781 -2.17717 46.1719 0.942759 1.41021 28.7808 1.31426e-005 2.58097e-005 -0.667833 16.5623 -88.4537 -6.2469 0.747358 1.41377 -17.9184 0.808876 1.3795 -40.4477 0.287985 1.57298 -20.4351 0.287979 1.57298 91.6499 -11.2712 -112.32 26.5158 24.042 -53.1707 -3.675 -0.297278 -112.57 -5.37983 -0.320016 -0.0162394 -85.7612 -10.2445 74.937 -31.9629 -19.9918 -79.4477 -36.4212 -19.2007 -68.7071 -52.3215 17.9361 -41.9751 -4.97233 1.54793 -13.0916 -6.86805 2.23439 13.5333 
-114.111 85.5659 -109.921 65.0145 -51.9942 68.7437 175.316 69.0325 87.5404 -70.2685 12.083 15.2478 -5.88704 -0.555645 -5.73759 28.7808 5.63953e-006 1.10137e-005 173.917 59.8794 96.967 -47.4498 6.86401 -2.15947 46.2908 0.855343 1.33532 28.7808 1.31426e-005 2.58097e-005 -0.605765 16.5706 -88.4794 -6.26307 0.821751 1.43924 -17.9345 0.884277 1.40168 -40.4638 0.351263 1.61961 -20.4512 0.351261 1.61962 91.9032 -10.8335 -111.913 26.7547 24.6438 -53.4568 -3.66773 -0.299377 -111.172 -5.37983 -0.320016 -0.0162394 -85.7006 -9.93096 74.9522 -33.1163 -20.1667 -80.2117 -38.8405 -19.4535 -69.7309 -51.7388 18.1588 -42.8875 -7.98978 1.83272 -12.912 -5.98727 2.27542 13.4299 
-114.122 85.4011 -109.957 65.0071 -52.1188 68.8527 174.978 69.2301 87.7795 -70.5962 12.3944 15.5185 -6.41006 -0.661894 -6.04556 28.7808 5.63953e-006 1.10137e-005 173.871 60.0289 97.1298 -47.7862 6.93603 -2.07102 46.6872 0.951281 1.39213 28.7808 1.31426e-005 2.58097e-005 -0.569474 16.5704 -88.487 -6.26209 0.892191 1.46112 -17.9335 0.955648 1.42045 -40.4628 0.411905 1.66166 -20.4501 0.411901 1.66166 92.128 -10.3907 -111.581 26.9494 25.168 -53.7506 -3.65981 -0.301459 -109.661 -5.37983 -0.320016 -0.0162394 -85.6243 -9.56153 74.9833 -34.3608 -20.4533 -80.9363 -41.5721 -19.5194 -71.1215 -51.0188 18.1534 -43.4742 -11.1322 2.10328 -12.9742 -4.783 2.33688 13.6829 
-114.155 85.2709 -109.988 65.8848 -52.2935 69.6111 174.882 68.8648 87.7166 -70.6804 12.1569 15.6209 -6.94334 -0.696909 -6.20003 28.7808 5.63953e-006 1.10137e-005 173.788 59.6072 97.1691 -48.129 6.82665 -2.04327 47.3216 1.02554 1.42249 28.7808 1.31426e-005 2.58097e-005 -0.519135 16.6224 -88.5283 -6.36588 0.920174 1.45475 -18.0373 0.983308 1.41284 -40.5667 0.44049 1.66401 -20.554 0.440495 1.66397 92.3138 -10.0913 -111.257 27.0185 25.4449 -54.3371 -3.65136 -0.303371 -108.061 -5.37983 -0.320016 -0.0162394 -85.627 -9.32613 74.8623 -35.6812 -20.9565 -81.6765 -44.5743 -19.356 -72.8662 -50.222 17.8597 -43.5512 -14.1831 2.34744 -12.9518 -3.95323 2.33951 13.8608 
-114.179 85.1492 -110.027 66.1164 -52.4229 69.8773 174.742 68.8818 87.7841 -71.1544 12.2489 15.6712 -6.42797 -0.467315 -5.61241 28.7808 5.63953e-006 1.10137e-005 173.802 59.6105 97.2865 -48.4003 7.00283 -2.0366 47.4821 0.974168 1.37382 28.7808 1.31426e-005 2.58097e-005 -0.472285 16.6263 -88.5407 -6.37356 0.979537 1.45972 -18.0449 1.04281 1.41519 -40.5745 0.495608 1.68655 -20.5618 0.495589 1.68655 92.3998 -9.93365 -111.118 27.0957 25.7103 -54.6155 -3.64474 -0.304733 -106.814 -5.37983 -0.320016 -0.0162394 -85.7192 -9.11042 74.5026 -37.3769 -21.6548 -82.6113 -47.71 -18.9456 -74.9044 -49.433 17.2254 -42.9084 -17.0871 2.55187 -12.9363 -3.25942 2.30878 13.8201 
